<svg xmlns="http://www.w3.org/2000/svg" viewBox="0 0 512 512"><path fill="#fff" d="M323.834 180.667H188.166c-8.271 0-15-6.761-15-15.07 0-8.271 6.729-15 15.004-15l286.33-.074V90.197l-286.33.066c-41.543 0-75.337 33.794-75.337 75.333 0 41.578 33.794 75.403 75.333 75.403h135.668c58.081 0 105.333 47.252 105.333 105.334 0 58.081-47.252 105.333-105.333 105.333H37.5V512h286.334c91.349 0 165.666-74.318 165.666-165.667s-74.317-165.666-165.666-165.666z"/><path fill="#fff" d="M188.166 60.264l286.334-.067V0H188.166C96.817 0 22.5 74.318 22.5 165.667s74.317 165.667 165.682 165.667l135.652-.14c8.271 0 15 6.729 15 15s-6.729 15-15 15H37.5v60.474h286.334v-.001c41.539 0 75.333-33.794 75.333-75.333 0-41.54-33.794-75.334-75.333-75.334H188.166c-58.081 0-105.333-47.284-105.333-105.403 0-58.081 47.252-105.333 105.333-105.333z"/></svg>