<?xml version="1.0" standalone="no"?>
<!DOCTYPE svg PUBLIC "-//W3C//DTD SVG 20010904//EN"
 "http://www.w3.org/TR/2001/REC-SVG-20010904/DTD/svg10.dtd">
<svg version="1.0" xmlns="http://www.w3.org/2000/svg"
 width="1156.000000pt" height="242.000000pt" viewBox="0 0 1156.000000 242.000000"
 preserveAspectRatio="xMidYMid meet">

<g transform="translate(0.000000,242.000000) scale(0.100000,-0.100000)"
fill="#ffffff" stroke="none">
<path d="M0 1210 l0 -1210 5780 0 5780 0 0 1210 0 1210 -5780 0 -5780 0 0
-1210z m1786 1018 c69 -37 135 -106 175 -185 34 -67 34 -68 34 -208 0 -131 -2
-144 -27 -197 -34 -74 -107 -146 -183 -184 -59 -29 -62 -29 -275 -34 l-215 -5
35 -21 c19 -12 95 -54 169 -93 73 -39 145 -80 160 -90 14 -10 89 -53 166 -96
217 -119 218 -115 -17 -115 -141 0 -206 4 -234 14 -22 7 -109 56 -194 108 -85
52 -252 150 -370 218 -118 68 -273 162 -345 209 l-130 86 550 5 c619 6 598 3
656 83 71 99 33 239 -82 298 -37 18 -64 19 -679 19 l-640 0 0 -520 0 -520
-120 0 -120 0 0 630 0 630 818 -2 817 -3 51 -27z m3294 -88 l0 -120 -870 0
-870 0 0 -400 0 -400 870 0 870 0 0 -110 0 -110 -980 0 -980 0 0 630 0 630
980 0 980 0 0 -120z m2342 -1 c73 -67 323 -290 555 -495 439 -389 696 -622
701 -636 2 -4 -77 -8 -176 -8 l-180 0 -34 27 c-18 15 -80 72 -138 128 -58 55
-123 114 -144 130 l-39 30 -554 5 -553 5 75 82 c127 138 91 127 443 133 l302
5 -203 203 -203 203 -125 -118 c-69 -65 -201 -185 -295 -268 -93 -82 -252
-231 -354 -330 -267 -261 -222 -235 -408 -235 l-157 0 100 101 c55 55 168 164
250 241 325 305 637 601 795 756 109 105 174 162 188 162 13 0 72 -47 154
-121z m2318 -399 l0 -520 860 0 860 0 0 -110 0 -110 -980 0 -980 0 0 630 0
630 120 0 120 0 0 -520z m-3865 -80 l0 -195 -195 0 -195 0 -3 185 c-1 101 0
190 3 197 3 11 46 13 197 11 l193 -3 0 -195z m3145 190 c12 -7 16 -41 18 -182
1 -102 -2 -179 -7 -188 -9 -12 -41 -15 -191 -15 -150 0 -182 3 -190 15 -15 23
-13 353 2 368 15 15 345 17 368 2z m-4260 -210 l0 -120 -620 0 -620 0 0 120 0
120 620 0 620 0 0 -120z m6658 -846 c19 -5 22 -13 22 -54 l0 -47 -782 -6
c-991 -9 -10505 -9 -10547 -1 -30 6 -31 9 -31 55 l0 49 338 3 c708 5 10978 6
11000 1z m-10941 -307 c64 -34 64 -85 0 -112 -25 -11 -28 -14 -11 -15 32 0 74
-38 74 -66 0 -57 -75 -94 -190 -94 -89 0 -138 16 -179 57 -40 40 -32 53 34 53
30 0 44 -6 60 -26 37 -47 150 -39 150 11 0 26 -40 45 -97 45 -44 0 -48 2 -48
25 0 23 4 25 44 25 47 0 96 14 96 27 0 5 -5 15 -10 23 -14 22 -108 20 -124 -2
-14 -19 -80 -25 -105 -9 -11 7 -9 14 12 34 15 13 41 29 59 35 49 16 196 9 235
-11z m934 11 c49 -14 105 -68 114 -108 17 -77 -32 -154 -112 -178 -50 -15
-145 -15 -196 -1 -48 13 -114 78 -119 116 -9 76 33 141 108 168 48 17 153 19
205 3z m3344 1 c42 -12 105 -67 105 -93 0 -13 -12 -16 -64 -16 -55 0 -64 3
-69 20 -10 40 -110 51 -145 16 -8 -8 -17 -36 -19 -63 -4 -38 -1 -53 15 -73 17
-21 29 -25 77 -25 47 0 60 4 75 23 15 18 28 22 74 22 34 0 56 -4 56 -11 0 -23
-68 -78 -111 -89 -64 -18 -185 -8 -236 18 -61 31 -83 65 -83 124 0 75 41 122
130 149 38 11 150 10 195 -2z m-3839 -10 c25 -7 62 -27 87 -49 38 -34 42 -42
42 -83 0 -52 -25 -86 -90 -120 -34 -18 -61 -22 -182 -25 l-143 -4 0 146 0 146
121 0 c66 0 140 -5 165 -11z m1194 -134 l0 -145 -60 0 -60 0 0 145 0 145 60 0
60 0 0 -145z m317 63 l83 -83 0 83 0 82 45 0 45 0 0 -145 0 -145 -52 0 -53 0
-95 95 -95 95 3 -95 4 -95 -51 0 -51 0 0 145 0 145 67 0 68 0 82 -82z m593 52
l0 -30 -60 0 -60 0 0 -115 0 -115 -65 0 -65 0 0 115 0 115 -60 0 -60 0 0 30 0
30 185 0 185 0 0 -30z m410 0 l0 -30 -120 0 -120 0 0 -30 0 -30 95 0 95 0 0
-30 0 -30 -95 0 c-95 0 -95 0 -95 -25 l0 -25 120 0 120 0 0 -30 0 -30 -180 0
-180 0 0 145 0 145 180 0 180 0 0 -30z m417 19 c40 -15 73 -49 73 -75 0 -23
-42 -64 -66 -64 -21 0 -17 -12 26 -74 22 -31 40 -59 40 -61 0 -3 -29 -5 -64
-5 l-65 0 -37 60 c-36 58 -38 60 -80 60 l-44 0 0 -60 0 -60 -60 0 -60 0 0 145
0 145 154 0 c85 0 167 -5 183 -11z m456 -64 c21 -38 56 -103 78 -142 l40 -73
-65 0 c-61 0 -66 2 -83 30 -17 29 -19 30 -96 30 -76 0 -78 -1 -95 -30 -16 -27
-22 -30 -70 -30 -29 0 -51 3 -49 8 2 4 39 69 81 145 l78 138 71 -3 72 -3 38
-70z m947 45 l0 -30 -60 0 -60 0 0 -115 0 -115 -65 0 -65 0 0 115 0 115 -60 0
-60 0 0 30 0 30 185 0 185 0 0 -30z m170 -115 l0 -145 -60 0 -60 0 0 145 0
145 60 0 60 0 0 -145z m233 42 l49 -102 51 103 52 102 53 0 54 0 -25 -42 c-13
-24 -48 -89 -77 -145 l-52 -103 -66 0 -67 0 -72 139 c-40 76 -73 141 -73 145
0 3 28 6 63 6 l62 -1 48 -102z m657 73 l0 -30 -120 0 -120 0 0 -30 0 -30 95 0
95 0 0 -30 0 -30 -95 0 c-95 0 -95 0 -95 -25 l0 -25 120 0 120 0 0 -30 0 -30
-180 0 -180 0 0 145 0 145 180 0 180 0 0 -30z m679 -55 l45 -86 45 86 46 85
93 0 92 0 0 -145 0 -145 -60 0 -60 0 0 113 -1 112 -60 -112 -60 -113 -43 0
-42 0 -60 112 -59 112 -3 -112 -3 -112 -49 0 -50 0 0 145 0 145 93 0 92 0 44
-85z m561 -25 l0 -110 28 -11 c38 -15 113 -5 129 17 9 12 13 51 13 116 l0 98
50 0 50 0 0 -115 c0 -109 -1 -117 -24 -140 -31 -31 -85 -45 -176 -45 -90 0
-140 13 -177 45 -27 22 -28 27 -31 139 l-4 116 71 0 71 0 0 -110z m480 -5 l0
-115 100 0 100 0 0 -30 0 -30 -160 0 -160 0 0 145 0 145 60 0 60 0 0 -115z
m540 85 l0 -30 -60 0 -60 0 0 -115 0 -115 -65 0 -65 0 0 115 0 115 -60 0 -60
0 0 30 0 30 185 0 185 0 0 -30z m180 -115 l0 -145 -60 0 -60 0 0 145 0 145 60
0 60 0 0 -145z m437 124 c28 -13 45 -29 49 -45 19 -75 -43 -114 -179 -114
l-87 0 0 -55 0 -55 -60 0 -60 0 0 145 0 145 147 0 c128 0 152 -3 190 -21z
m243 -94 l0 -115 100 0 100 0 0 -30 0 -30 -160 0 -160 0 0 145 0 145 60 0 60
0 0 -115z m553 40 c21 -38 56 -103 78 -142 l40 -73 -65 0 c-61 0 -66 2 -83 30
-17 29 -19 30 -96 30 -76 0 -78 -1 -95 -30 -16 -27 -22 -30 -70 -30 -29 0 -51
3 -49 8 2 4 39 69 81 145 l78 138 71 -3 72 -3 38 -70z m254 21 l48 -54 45 53
c44 52 46 54 98 54 l54 1 -30 -37 c-17 -21 -51 -58 -76 -83 -45 -43 -46 -45
-46 -107 l0 -63 -60 0 -60 0 0 60 0 60 -81 85 -82 85 71 0 70 0 49 -54z m643
24 l0 -30 -120 0 -120 0 0 -30 0 -30 95 0 95 0 0 -30 0 -30 -95 0 c-95 0 -95
0 -95 -25 l0 -25 120 0 120 0 0 -30 0 -30 -180 0 -180 0 0 145 0 145 180 0
180 0 0 -30z m407 19 c40 -15 73 -49 73 -75 0 -23 -42 -64 -66 -64 -21 0 -17
-12 26 -74 22 -31 40 -59 40 -61 0 -3 -29 -5 -64 -5 l-65 0 -37 60 c-36 58
-38 60 -80 60 l-44 0 0 -60 0 -60 -60 0 -60 0 0 145 0 145 154 0 c85 0 167 -5
183 -11z"/>
<path d="M1254 427 c-24 -21 -29 -33 -29 -72 0 -39 5 -51 29 -72 25 -21 37
-24 70 -20 52 7 76 36 76 92 0 56 -24 85 -76 92 -33 4 -45 1 -70 -20z"/>
<path d="M750 356 l0 -86 40 0 c82 0 135 40 128 97 -4 38 -48 66 -113 71 l-55
4 0 -86z"/>
<path d="M3630 415 l0 -35 61 0 c65 0 99 12 99 35 0 23 -34 35 -99 35 l-61 0
0 -35z"/>
<path d="M4150 370 c-11 -21 -20 -42 -20 -45 0 -3 22 -5 50 -5 l50 0 -22 45
c-12 25 -25 45 -30 45 -4 0 -17 -18 -28 -40z"/>
<path d="M8970 410 l0 -40 49 0 c66 0 101 14 101 40 0 26 -35 40 -101 40 l-49
0 0 -40z"/>
<path d="M9830 370 c-11 -21 -20 -42 -20 -45 0 -3 22 -5 50 -5 l50 0 -22 45
c-12 25 -25 45 -30 45 -4 0 -17 -18 -28 -40z"/>
<path d="M11070 415 l0 -35 61 0 c65 0 99 12 99 35 0 23 -34 35 -99 35 l-61 0
0 -35z"/>
</g>
</svg>
