<svg xmlns="http://www.w3.org/2000/svg" width="57mm" height="15mm" viewBox="0 0 201.969 53.15"><g transform="translate(0 -999.213)"><g style="line-height:125%"><path d="M38.732 1047.048v-23.92c0-4.96.64-5.64 4.4-5.76v-1.52h-10.76v1.52c3.4.12 3.96.76 3.96 6.04v15.76h-.16l-17.48-23.32h-7.92v1.52c3.44.16 4 1.24 4 5.76v16.24c0 4.96-.64 5.64-4.4 5.76v1.52h10.76v-1.52c-3.4-.12-3.96-.76-3.96-6.04v-17.08h.16l19 25.04h2.4z" style="-inkscape-font-specification:'Libre Baskerville Bold'" font-weight="700" font-family="Libre Baskerville" font-size="40" letter-spacing="0" word-spacing="0" fill="#fff"/></g><g style="line-height:125%"><path d="M52.934 1018.27c0-.4.24-.68.68-.68h5.08c5.44 0 7.48 1.08 8.12 5.32h1.4l-.36-7.04h-23.12v1.52c3.44.16 4 .84 4 4.56v18.64c0 3.76-.64 4.44-4.4 4.56v1.52h24.84l.6-7.88h-1.52c-1.04 4.72-3.04 6.16-8.68 6.16-5.04 0-6.64-1.08-6.64-4.56v-9.04c6 .04 7.56 1.52 7.56 4.72h1.4v-10.92h-1.4c0 3.24-1.8 4.6-7.56 4.6v-11.48z" style="-inkscape-font-specification:'Libre Baskerville Bold'" font-weight="700" font-family="Libre Baskerville" font-size="40" letter-spacing="0" word-spacing="0" fill="#fff"/></g><g style="line-height:125%"><path d="M83.963 1015.1c-9.36 0-16.64 7-16.64 16.04 0 8.68 7.36 15.56 16.64 15.56 9.28 0 16.64-6.88 16.64-15.56 0-9.04-7.28-16.04-16.64-16.04zm0 29.4c-7.04 0-11.44-5.12-11.44-13.24 0-8.56 4.4-13.96 11.44-13.96 7.04 0 11.44 5.4 11.44 13.96 0 8.12-4.44 13.24-11.44 13.24z" style="-inkscape-font-specification:'Libre Baskerville Bold'" font-weight="700" font-family="Libre Baskerville" font-size="40" letter-spacing="0" word-spacing="0" fill="#fff"/></g><path fill="#fff" d="M106.429 1031.648a2.41 2.321 0 01-2.411 2.321 2.41 2.321 0 01-2.41-2.321 2.41 2.321 0 012.41-2.321 2.41 2.321 0 012.41 2.32z" stroke="#fff"/><g style="line-height:125%"><path fill="#fff" d="M122.526 1047.086c7.03 0 10.296-.058 13.162-.058l.158-8.142c.053-2.76.68-3.56 3.28-3.56v-1.52h-11.36v1.52c2.84 0 4 .84 4 3.96 0 2.96-3 5.64-8.16 5.64-6.72 0-10.44-4.8-10.44-13.36 0-8.72 3.84-14 10.32-14 4.32 0 8.56 2.32 8.56 7.52h1.92l.52-9.2h-1.4l-.84 2.48c-3.28-2.04-5.92-2.88-9.12-2.88-9.08 0-15.32 6.64-15.32 16.32 0 9.32 5.68 15.28 14.72 15.28z" style="-inkscape-font-specification:'Libre Baskerville Bold'" font-weight="700" font-family="Libre Baskerville" font-size="40" letter-spacing="0" word-spacing="0"/></g><g style="line-height:125%"><path fill="#fff" d="M145.769 1018.308c0-.4.24-.68.68-.68h5.08c5.44 0 7.48 1.08 8.12 5.32h1.4l-.36-7.04h-23.12v1.52c3.44.16 4 .84 4 4.56v18.64c0 3.76-.64 4.44-4.4 4.56v1.52h24.84l.6-7.88h-1.52c-1.04 4.72-3.04 6.16-8.68 6.16-5.04 0-6.64-1.08-6.64-4.56v-9.04c6 .04 7.56 1.52 7.56 4.72h1.4v-10.92h-1.4c0 3.24-1.8 4.6-7.56 4.6v-11.48z" style="-inkscape-font-specification:'Libre Baskerville Bold'" font-weight="700" font-family="Libre Baskerville" font-size="40" letter-spacing="0" word-spacing="0"/></g><g style="line-height:125%"><path fill="#fff" d="M176.797 1015.138c-9.36 0-16.64 7-16.64 16.04 0 8.68 7.36 15.56 16.64 15.56 9.28 0 16.64-6.88 16.64-15.56 0-9.04-7.28-16.04-16.64-16.04zm0 29.4c-7.04 0-11.44-5.12-11.44-13.24 0-8.56 4.4-13.96 11.44-13.96 7.04 0 11.44 5.4 11.44 13.96 0 8.12-4.44 13.24-11.44 13.24z" style="-inkscape-font-specification:'Libre Baskerville Bold'" font-weight="700" font-family="Libre Baskerville" font-size="40" letter-spacing="0" word-spacing="0"/></g><text style="line-height:125%" x="194.836" y="1018.344" font-weight="400" font-size="2.452" font-family="sans-serif" letter-spacing="0" word-spacing="0"><tspan x="194.836" y="1018.344">R</tspan></text><circle cx="195.672" cy="1017.495" r="1.66" fill="#fff" stroke="#fff" stroke-width=".584"/></g></svg>