<svg height="596" viewBox="0 0 447.632 447" width="596" xmlns="http://www.w3.org/2000/svg"><path fill="white" d="M231.816 447.05c34.23-4.863 64.239-40.59 83.121-93.35a406.317 406.317 0 00-83.12-9.786zm0 0M286.504 438.66c2.023-.586 4.039-1.176 6.039-1.824 1.687-.543 3.352-1.129 5.016-1.711a203.39 203.39 0 005.882-2.121c1.664-.633 3.313-1.305 4.965-1.977 1.906-.8 3.809-1.597 5.692-2.398a240.401 240.401 0 0010.422-4.922c1.601-.816 3.199-1.648 4.8-2.504 1.793-.96 3.575-1.941 5.344-2.95a203.403 203.403 0 004.703-2.753c1.735-1.066 3.461-2.133 5.176-3.2a191.535 191.535 0 004.578-2.991 221.095 221.095 0 005.008-3.504 417.693 417.693 0 004.422-3.2 365.942 365.942 0 004.847-3.793c1.426-1.136 2.848-2.265 4.25-3.433 1.598-1.328 3.13-2.703 4.68-4.078 1.36-1.207 2.727-2.403 4.055-3.64 1.527-1.427 3.015-2.903 4.504-4.368 1.289-1.273 2.593-2.527 3.855-3.832.235-.242.457-.504.7-.754a268.883 268.883 0 00-54.817-21.094 198.517 198.517 0 01-51.129 83.024c.649-.168 1.297-.305 1.945-.473 1.711-.48 3.391-1.008 5.063-1.504zm0 0M447.633 231.684H351.71a414.882 414.882 0 01-16.152 110.68 278.228 278.228 0 0160.714 24.16 223.51 223.51 0 0051.36-134.84zm0 0M231.816 215.684h103.895a400.208 400.208 0 00-15.75-106.743 421.384 421.384 0 01-88.145 10.512zm0 0M231.816.316v103.137a406.589 406.589 0 0083.121-9.785C296.055 40.906 266.048 5.18 231.817.316zm0 0M231.816 327.914a421.648 421.648 0 0188.145 10.516 400.236 400.236 0 0015.75-106.746H231.816zm0 0M396.273 80.844a278.228 278.228 0 01-60.714 24.16 414.882 414.882 0 0116.152 110.68h95.922a223.577 223.577 0 00-51.36-134.84zm0 0M385.465 68.707c-.235-.238-.457-.496-.688-.742-1.265-1.305-2.578-2.563-3.867-3.832-1.484-1.465-2.965-2.945-4.496-4.367-1.324-1.235-2.695-2.403-4.055-3.633-1.55-1.375-3.101-2.762-4.695-4.09-1.383-1.168-2.8-2.285-4.207-3.406a171.24 171.24 0 00-4.89-3.825 220.477 220.477 0 00-4.383-3.199 192.844 192.844 0 00-5.055-3.547 200.251 200.251 0 00-4.535-2.957 190.441 190.441 0 00-5.219-3.257 223.26 223.26 0 00-4.664-2.727 220.848 220.848 0 00-5.39-2.984c-1.602-.801-3.2-1.672-4.801-2.473-1.84-.93-3.696-1.824-5.598-2.703a174.071 174.071 0 00-4.875-2.227c-1.895-.84-3.809-1.597-5.719-2.398a225.094 225.094 0 00-4.953-1.969 191.214 191.214 0 00-5.879-2.117 210.272 210.272 0 00-5.016-1.715c-2-.648-4-1.238-6.054-1.832-1.664-.488-3.336-.984-5.02-1.43-.644-.175-1.3-.312-1.949-.48a198.532 198.532 0 0151.129 83.023 268.485 268.485 0 0054.879-21.113zm0 0M0 215.684h95.922a415.035 415.035 0 0116.148-110.68 277.885 277.885 0 01-60.71-24.16A223.519 223.519 0 000 215.684zm0 0M215.816 447.05V343.915a406.589 406.589 0 00-83.12 9.785c18.878 52.762 48.89 88.488 83.12 93.352zm0 0M215.816 231.684H111.922a400.079 400.079 0 0015.75 106.746 421.097 421.097 0 0188.144-10.516zm0 0M215.816.316c-34.23 4.864-64.242 40.59-83.12 93.352a406.045 406.045 0 0083.12 9.785zm0 0M215.816 119.453a421.384 421.384 0 01-88.144-10.512 400.05 400.05 0 00-15.75 106.743h103.894zm0 0M168.113 6.79c-.648.167-1.297.304-1.945.472-1.695.453-3.367.957-5.055 1.445-2.008.586-4 1.176-6.015 1.816-1.7.551-3.371 1.137-5.043 1.72-1.957.69-3.918 1.378-5.856 2.112-1.672.641-3.32 1.305-4.976 1.985-1.903.8-3.809 1.601-5.688 2.398-1.648.723-3.277 1.48-4.91 2.242a223.908 223.908 0 00-5.512 2.68 228.526 228.526 0 00-10.137 5.457 149.244 149.244 0 00-4.718 2.75c-1.738 1.047-3.457 2.13-5.168 3.2-1.54.984-3.067 1.976-4.578 3a221.095 221.095 0 00-5.008 3.503 403.614 403.614 0 00-4.426 3.203c-1.637 1.23-3.2 2.512-4.848 3.79-1.421 1.136-2.855 2.265-4.246 3.44-1.601 1.321-3.12 2.688-4.664 4.056-1.367 1.218-2.746 2.402-4.082 3.664-1.52 1.418-3 2.89-4.484 4.351-1.29 1.274-2.602 2.531-3.867 3.84-.23.242-.453.508-.696.754a268.581 268.581 0 0054.817 21.098 198.45 198.45 0 0151.105-82.977zm0 0M66.719 383.234c1.488 1.465 2.969 2.946 4.496 4.371 1.328 1.23 2.695 2.399 4.058 3.63 1.551 1.378 3.102 2.761 4.696 4.09 1.383 1.16 2.793 2.28 4.207 3.405 1.601 1.297 3.199 2.586 4.894 3.833 1.442 1.082 2.907 2.128 4.371 3.203 1.672 1.199 3.36 2.398 5.063 3.55a214.813 214.813 0 004.535 2.961c1.73 1.11 3.457 2.2 5.219 3.254 1.543.93 3.101 1.84 4.664 2.73a208.275 208.275 0 005.39 2.981c1.598.801 3.2 1.672 4.801 2.473 1.84.93 3.696 1.824 5.598 2.707 1.601.754 3.226 1.496 4.875 2.223 1.894.84 3.805 1.597 5.719 2.398 1.648.672 3.289 1.336 4.953 1.969 1.941.746 3.91 1.441 5.879 2.12 1.664.583 3.328 1.169 5.015 1.712 2 .648 4 1.242 6.055 1.832 1.664.488 3.336.984 5.016 1.433.648.176 1.304.313 1.953.48a198.57 198.57 0 01-51.13-83.027 268.607 268.607 0 00-54.816 21.106c.235.238.458.496.692.742 1.2 1.297 2.492 2.555 3.797 3.824zm0 0M51.36 366.523a278.275 278.275 0 0160.71-24.16 415.035 415.035 0 01-16.148-110.68H0a223.552 223.552 0 0051.36 134.84zm0 0"/></svg>