<svg xmlns="http://www.w3.org/2000/svg" viewBox="0 0 106.726 106.726"><g fill="white"><path fill="white" d="M11.703 67.563l-3.6 1.4c-5.4 2.3-8.2 4.7-8.1 6.8.3 3.1 3.8 5.4 10.2 7.1 8.3 2.2 16.7 2.7 25.4 1.4v-8.7l-6.9 2.6c-7.2 2.5-10.9.4-10.9.4-1.1-.7-1.6-2.4 1.4-3.5l3.8-1.4 12.6-4.5v-10.1l-3.2 1.1-20.7 7.4zM64.303 32.463v25.9c5.4 2.6 10.2 2.8 13.8.1 3.7-2.6 5.7-7.1 5.7-13.9 0-7.1-1.4-12.5-4.5-16.1-2.8-3.8-7.8-7-15.2-9.5-9.2-3-17-5.6-23.2-6.9v77.5l16.7 5.1v-64.4c-.1-3.9 6.7-3.6 6.7 2.2z"/><path d="M106.703 72.463c-.1-2.7-3.3-4.8-9-6.7-6.4-2.1-11.9-3.1-17.9-2.9-5.5.1-12.1 1.9-18 3.8v9.9l16.2-5.7s4.9-1.8 9.1-.7c3.2.8 3 2.6-.2 3.7l-3.7 1.5-21.4 7.7v10.1l10-3.6 24-8.5 2.8-1.3c5.8-2.1 8.4-4.4 8.1-7.3z"/></g></svg>