<svg xmlns="http://www.w3.org/2000/svg" viewBox="0 0 25.732 25.732"><path d="M5.733 2.183c-.013.01-.023.021-.035.031.073-.077.178-.16.247-.205C7.959.7 10.286 0 12.868 0c2.415 0 4.677.667 6.608 1.827.14.083.522.345.719.583v.001c-1.863-2.054-7.339 2.353-7.339 2.353-1.894-1.46-3.636-2.455-4.933-2.809-1.084-.297-1.834-.049-2.19.228zm16.572 1.942c-.057-.063-.119-.122-.176-.187-.471-.517-1.05-.642-1.572-.608-.475.149-2.67.94-5.375 3.494 0 0 3.045 2.961 4.91 5.988 1.863 3.027 2.977 5.406 2.292 8.708a12.817 12.817 0 003.347-8.655c0-3.374-1.299-6.445-3.426-8.74zm-4.648 9.98a89.118 89.118 0 00-3.678-3.869c-.355-.353-.73-.721-1.124-1.102 0 0-.593.593-1.365 1.373v-.001c-.988.998-2.269 2.3-2.98 3.06-1.266 1.351-4.893 5.594-5.097 7.973 0 0-.807-1.887.964-6.239 1.157-2.845 4.653-7.117 6.113-8.509 0 0-1.334-1.468-3.008-2.482l-.01-.003s-.019-.015-.049-.034c-.805-.48-1.684-.85-2.53-.899-.864.061-1.411.693-1.411.693a12.82 12.82 0 00-3.48 8.8c0 7.105 5.76 12.866 12.866 12.866a12.84 12.84 0 009.518-4.211c-.001-.004-.271-1.7-2.002-4.133-.407-.57-1.894-2.349-2.727-3.283z" fill="#fff"/></svg>