<svg xmlns="http://www.w3.org/2000/svg" viewBox="0 0 512 512"><path fill="white" d="M407 0H105C47.103 0 0 47.103 0 105v302c0 57.897 47.103 105 105 105h302c57.897 0 105-47.103 105-105V105C512 47.103 464.897 0 407 0zm75 407c0 41.355-33.645 75-75 75H105c-41.355 0-75-33.645-75-75V105c0-41.355 33.645-75 75-75h302c41.355 0 75 33.645 75 75v302z"/><path fill="white" d="M305.646 123.531c-1.729-6.45-5.865-11.842-11.648-15.18-11.936-6.892-27.256-2.789-34.15 9.151L256 124.166l-3.848-6.665c-6.893-11.937-22.212-16.042-34.15-9.151h-.001c-11.938 6.893-16.042 22.212-9.15 34.151l18.281 31.664L159.678 291H110.5c-13.785 0-25 11.215-25 25s11.215 25 25 25h189.86l-28.868-50h-54.079l85.735-148.498c3.339-5.783 4.227-12.521 2.498-18.971z"/><path fill="white" d="M401.5 291h-49.178l-55.907-96.834-28.867 50 86.804 150.348c3.339 5.784 8.729 9.921 15.181 11.65 2.154.577 4.339.863 6.511.863 4.332 0 8.608-1.136 12.461-3.361 11.938-6.893 16.042-22.213 9.149-34.15L381.189 341H401.5c13.785 0 25-11.215 25-25s-11.215-25-25-25zM119.264 361l-4.917 8.516c-6.892 11.938-2.787 27.258 9.151 34.15a24.837 24.837 0 0012.458 3.344c8.646 0 17.067-4.484 21.693-12.495L176.999 361h-57.735z"/></svg>