<svg xmlns="http://www.w3.org/2000/svg" width="511.655" height="511.655"><path fill="white" d="M469.584 428.409c-2.087-2.379-5.041-4.709-8.846-6.995-.575-.373-2.143-1.279-4.702-2.7-2.566-1.43-4.613-2.666-6.143-3.716-1.52-1.048-3.519-2.854-5.996-5.425-2.471-2.566-4.421-5.283-5.852-8.138-1.427-2.851-2.807-6.704-4.141-11.56-1.335-4.856-2.088-10.232-2.283-16.133-2.666 2.276-4.138 6.797-4.425 13.559-.287 6.756 1.144 13.651 4.285 20.694 3.138 7.046 7.85 11.607 14.13 13.706 6.088 2.098 10.988 4.328 14.705 6.707 3.706 2.382 6.091 5.089 7.139 8.135 1.047 3.053-.719 6.334-5.284 9.852-4.572 3.525-11.898 6.995-21.984 10.432-13.894 4.753-23.746 8.802-29.554 12.128-5.804 3.333-14.317 9.664-25.55 18.986-7.617 6.282-15.704 9.664-24.273 10.14-8.559.479-15.512-2.662-20.837-9.418-5.332-6.755-7.05-16.316-5.144-28.695 3.617-23.79 3.528-42.349-.277-55.671-3.046-10.469-3.717-19.702-1.998-27.696 1.711-7.986 4.373-12.647 7.994-13.982 3.606-1.338 7.515 1.52 11.703 8.559.373.951 1.235 2.807 2.563 5.568 1.331 2.758 2.423 4.716 3.288 5.852.856 1.143 2.14 2.618 3.854 4.429 1.711 1.813 3.864 3.093 6.427 3.859 2.567.76 5.562 1.235 8.994 1.424 6.471.188 12.271-1.143 17.415-3.997 5.137-2.854 8.997-6.043 11.563-9.564a309.739 309.739 0 017.707-10.137c2.566-3.241 4.805-5.048 6.711-5.431 2.091-.373 3.997-2.468 5.711-6.28 1.712-3.805 2.854-9.086 3.426-15.841.575-6.759.096-14.801-1.424-24.123-2.857-16.566-8.524-34.741-16.991-54.535-8.473-19.797-17.936-35.309-28.407-46.54-18.842-19.983-31.494-40.729-37.972-62.239-6.656-22.648-9.507-43.015-8.559-61.098.954-12.944-1.855-26.982-8.419-42.115-6.563-15.131-15.276-26.694-26.125-34.688-6.851-5.137-15.324-9.086-25.406-11.848C266.519 1.112 256.428-.169 246.34.019c-12.369 0-22.27 1.997-29.69 5.996-15.227 8.186-25.312 18.13-30.264 29.836-4.952 11.704-7.232 26.122-6.854 43.253.765 37.687 2.284 67.189 4.57 88.505-2.667 9.899-14.465 28.454-35.404 55.672-3.809 3.809-7.521 8.947-11.138 15.418-3.615 6.473-6.471 12.28-8.564 17.415-2.096 5.137-4.902 12.56-8.423 22.269-3.523 9.705-6.042 16.56-7.566 20.554-1.332 3.432-3.427 7.422-6.28 11.998-2.856 4.564-5.145 9.041-6.854 13.411-1.709 4.377-2.663 9.325-2.853 14.846-.19 4.188 0 7.806.572 10.848.759 4.575 2.19 5.999 4.281 4.288 8.569-6.472 19.323-2.666 32.264 11.423 9.136 9.897 25.221 32.929 48.251 69.094a201.359 201.359 0 015.708 10.428c1.908 3.706 3.711 8.65 5.426 14.838 1.713 6.194 2.428 11.756 2.141 16.707-.288 4.952-2.474 9.521-6.567 13.702-4.093 4.186-10.232 6.849-18.415 7.991-4.38.571-9.657.195-15.846-1.143-6.186-1.332-14.038-3.519-23.553-6.564-9.517-3.042-16.558-5.14-21.127-6.283-6.658-1.526-16.127-3.467-28.406-5.852-12.278-2.382-20.322-4.141-24.128-5.284-6.471-1.711-9.991-4.182-10.561-7.422-.572-2.666.76-7.231 3.997-13.699 3.239-6.472 4.854-11.14 4.854-13.99a23.256 23.256 0 00-.288-6.282c-.378-2.095-.806-3.714-1.283-4.856-.476-1.14-1.285-2.854-2.428-5.141-1.143-2.282-1.903-4-2.284-5.136-3.424-7.998-3.901-13.429-1.427-16.279 1.711-2.475 5.804-3.426 12.275-2.852 9.707.952 17.605-.479 23.697-4.287 10.085-6.28 13.134-16.368 9.135-30.266 0 6.471-1.143 11.32-3.427 14.561-2.284 3.234-6.283 6.567-11.991 9.996-3.234 1.903-8.947 3.043-17.129 3.43-8.183.38-13.61 1.714-16.274 3.997-1.902 1.714-2.9 4.284-2.996 7.71-.094 3.433.337 6.899 1.287 10.424.95 3.521 1.903 7.562 2.853 12.132.953 4.571 1.331 8.381 1.143 11.423-.19 2.091-1.908 7.282-5.142 15.554-3.234 8.282-3.9 14.612-1.997 18.986.953 2.098 2.568 3.956 4.853 5.571 2.283 1.618 5.471 2.998 9.563 4.145 4.089 1.143 7.85 2.046 11.278 2.71 3.424.66 8.182 1.522 14.272 2.563 6.091 1.043 10.944 1.954 14.561 2.71 12.182 2.478 26.075 6.57 41.684 12.278 15.607 5.712 26.169 8.658 31.689 8.847 5.33.188 10.42-.903 15.275-3.285 4.853-2.375 8.992-5.089 12.419-8.135 3.424-3.046 8.516-5.903 15.271-8.565 6.76-2.666 14.325-4.093 22.701-4.284a1742.8 1742.8 0 0116.558-.712c7.233-.288 12.656-.428 16.273-.428 16.368 0 28.739.092 37.113.283 5.711.195 10.184 1.096 13.421 2.715 3.234 1.615 5.332 3.473 6.28 5.563.951 2.099 2.529 4.521 4.719 7.283 2.184 2.758 4.99 4.996 8.412 6.707 7.23 3.429 15.704 4.808 25.413 4.141 9.705-.664 16.18-2.522 19.413-5.567 5.329-5.137 12.512-11.231 21.553-18.271 9.042-7.039 17.187-12.371 24.414-15.988 1.52-.767 4.09-2.002 7.707-3.717a470.475 470.475 0 009.13-4.428c2.475-1.238 5.476-2.81 8.99-4.712 3.524-1.906 6.379-3.665 8.569-5.284 2.189-1.619 4.421-3.47 6.707-5.568 2.283-2.091 3.758-4.185 4.429-6.279a16.48 16.48 0 00.712-6.424c-.195-2.184-1.332-4.463-3.43-6.848zM316.559 152.468c.568-.378.952-.522 1.14-.428.192.096.572.478 1.14 1.143.575.666 1.092 1.287 1.574 1.858a85.445 85.445 0 001.992 2.281c.855.953 1.759 1.713 2.707 2.284 1.149.76 2.525 1.287 4.144 1.571 1.619.284 2.857.76 3.717 1.425s1.479 1.759 1.852 3.284c.376 2.096.058 3.995-.989 5.708-1.054 1.715-2.43 2.478-4.147 2.286-3.426-.762-7.139-3.758-11.133-8.993-3.992-5.234-4.662-9.373-1.997-12.419zM281.154 41.555c.948-1.237 1.52-2.236 1.708-2.996.38-1.146.428-2.334.144-3.571s-.191-2.474.284-3.711c.479-1.237 1.574-1.951 3.288-2.141 1.712 0 3.997 1.429 6.852 4.283.568.382 1.472.953 2.703 1.713 1.239.762 2.095 1.427 2.57 1.997.476.568.712 1.049.712 1.427-.38.95-1.235 1.622-2.563 2-1.327.378-2.762.572-4.281.572s-2.382.094-2.569.284c-1.523.572-2.95 1.427-4.285 2.568-1.331 1.143-2.378 1.999-3.138 2.57-.767.57-1.526.57-2.286 0-.76-1.143-1.047-1.952-.855-2.426.193-.474.765-1.332 1.716-2.569zM142.972 255.256c1.328-1.521 2.283-2.758 2.853-3.711.571-.953 1.093-2.238 1.57-3.854.476-1.62.904-2.811 1.285-3.571.383-.765.955-1.049 1.715-.859.378-.094.662.094.859.571l.284.715v.857c0 .288-.049.666-.144 1.143-.096.48-.24.907-.428 1.285-.193.383-.382.955-.571 1.714-.19.76-.378 1.427-.572 1.997-.76 1.908-1.952 3.617-3.567 5.141-1.619 1.522-2.81 2.189-3.571 1.998-1.142-.378-1.044-1.525.287-3.426zM329.683 431.41c-.38 6.088-1.666 14.657-3.856 25.697-2.19 11.036-3.572 18.366-4.145 21.98-3.997-.195-6.279-1.67-6.851-4.429-.568-2.762 0-6.327 1.714-10.707 4.186-12.758 6.369-21.512 6.564-26.266.387-8.757-.568-13.706-2.848-14.846-2.102-1.522-5.335 1.335-9.712 8.562-8.381 13.706-25.222 21.98-50.535 24.842-22.836 3.046-38.634-.38-47.392-10.283-1.903-1.332-3.806-1.568-5.708-.709-1.903.849-3.14 1.759-3.711 2.703-.188.384 0 .952.572 1.715.571.764 1.475 1.902 2.712 3.426 1.237 1.529 2.236 3.046 2.996 4.575 7.426 12.939 6.761 21.693-1.997 26.262 0-8.75-.666-15.461-1.997-20.122-1.333-4.664-3.995-9.801-7.994-15.42-3.995-5.613-6.755-9.85-8.276-12.703 5.708-.568 10.039-2.759 12.99-6.567 2.95-3.806 4.281-7.898 3.997-12.275-.286-4.38-1.95-7.998-4.996-10.852-1.713-1.711-10.566-8.993-26.553-21.841-15.986-12.847-25.885-21.46-29.69-25.837-.765-.763-3.046-2.666-6.854-5.712-3.809-3.045-6.189-5.708-7.139-7.994-8.757-19.215-9.707-35.021-2.856-47.387l1.141-1.427c.95-.188 1.046 1.522.284 5.141-1.141 5.331-1.52 10.656-1.141 15.988.76 11.994 4.187 20.937 10.277 26.833 3.999 4.004 6.757 3.717 8.281-.853 1.143-1.526 1.665-7.139 1.569-16.851-.091-9.702.05-16.269.431-19.698 1.524-10.848 6.045-24.27 13.562-40.251 7.517-15.99 13.468-24.556 17.845-25.697-3.427-5.52-4.521-11.516-3.283-17.988 1.235-6.472 3.237-11.995 5.995-16.56 2.757-4.567 5.568-9.847 8.42-15.844 2.856-5.996 4.283-11.374 4.283-16.132 0-1.33.098-2.283.288-2.854.57-1.713 2.95.38 7.137 6.279 7.994 11.803 13.99 18.752 17.988 20.845 4.187 2.281 8.848 2.187 13.988-.288 5.138-2.474 11.466-6.567 18.986-12.275 7.515-5.708 13.939-9.897 19.27-12.559.575-.193 1.476-.621 2.718-1.287 1.231-.662 2.183-1.141 2.847-1.429.661-.284 1.52-.711 2.57-1.283 1.04-.571 1.848-1.047 2.42-1.429a20.079 20.079 0 001.711-1.287c.567-.478.947-.95 1.143-1.427.191-.476.287-.903.287-1.285-.383-1.714-1.19-2.762-2.43-3.14-1.238-.38-2.901-.144-4.996.715-2.094.857-4.428 2-6.995 3.426a667.529 667.529 0 00-8.562 4.854 131.27 131.27 0 01-9.562 4.997 82.17 82.17 0 01-10.279 3.999c-3.616 1.14-7.042 1.809-10.277 1.999-7.994.191-14.368-1.899-19.126-6.28-3.045-2.858-4.661-4.665-4.854-5.426-.192-.759.666-.949 2.568-.571 10.282 1.333 17.798 1.521 22.557.571 4.948-.759 11.609-2.95 19.985-6.567 1.715-.76 6.04-2.618 12.994-5.568 6.943-2.946 12.323-4.993 16.129-6.136 2.289-.572 3.86-1.475 4.716-2.712.852-1.237 1.14-2.38.852-3.428-.283-1.045-.903-1.853-1.851-2.424-2.099-1.143-4.001-.38-5.708 2.284-.955 1.713-2.957 3.381-6 4.997-3.042 1.62-5.854 2.855-8.422 3.711-2.569.855-5.852 1.855-9.851 2.996-3.999 1.143-6.184 1.809-6.567 1.999-10.467 3.234-20.174 4.663-29.121 4.281-4.188-.188-7.565-.809-10.133-1.856-2.57-1.044-4.333-2.281-5.282-3.711-.953-1.425-2.474-3.234-4.568-5.424a31.466 31.466 0 00-7.139-5.57c-1.903-.95-2.618-2.663-2.141-5.137.476-2.474 1.951-5.046 4.425-7.71.19-.192 2.142-1.379 5.852-3.569 3.711-2.19 6.329-4.427 7.854-6.711 1.709-2.664 4.661-5.426 8.848-8.282.19-.76.334-2.853.428-6.279.094-3.424-.809-7.136-2.712-11.133-1.903-3.999-4.475-5.995-7.71-5.995-4.569-.19-7.804 1.141-9.707 3.997-1.903 2.852-2.757 6.375-2.568 10.562.193 3.615 1.097 6.801 2.712 9.563 1.619 2.762 3.095 4.143 4.427 4.143 2.092-.193 2.758.566 1.997 2.281-1.141 2.096-2.666 3.431-4.568 3.999-1.336.378-2.812-.905-4.427-3.855-1.619-2.95-2.855-6.517-3.711-10.706-.855-4.187-1.191-7.708-.998-10.566.378-5.9 1.947-11.563 4.709-16.988 2.762-5.424 6.711-8.042 11.848-7.854 5.33.193 9.616 3.431 12.85 9.71 3.239 6.28 4.76 14.849 4.57 25.697.572 1.333 2.046 1.809 4.427 1.427 2.375-.382 5.518-.431 9.419-.144 3.899.284 6.706 1.282 8.42 2.996.193 0 .288-1.43.288-4.283-3.427-23.979 5.042-36.732 25.41-38.256 3.039.572 5.609 1.287 7.7 2.141 2.101.855 4.329 2.286 6.711 4.283 2.385 1.997 4.376 4.899 5.995 8.708 1.619 3.811 2.905 8.569 3.856 14.277v10.562c0 6.09-1.242 9.517-3.716 10.279-3.994 1.331-6.845 1.285-8.556-.144-1.715-1.43-1.529-3.949.568-7.566 1.902-4.758 1.522-10.282-1.144-16.562-2.662-6.279-7.519-9.135-14.558-8.563-4.76.191-8.186 2.761-10.28 7.708-2.094 4.949-2.853 9.803-2.282 14.562.571 4.758 1.615 7.232 3.142 7.421 1.14.193 4.523 1.714 10.137 4.57 5.622 2.855 9.855 4.567 12.706 5.138 7.423 1.52 11.652 3.9 12.703 7.137 1.047 3.239.619 7.948-1.283 14.133-1.906 6.189-2.475 11.276-1.708 15.275.76 4.192 2.19 7.994 4.285 11.42 2.094 3.429 4.325 6.567 6.707 9.424 2.378 2.849 5.181 8.183 8.425 15.985 3.231 7.806 6.181 17.607 8.843 29.408.188.19.9.856 2.14 1.999 1.238 1.141 2.471 2.568 3.713 4.281 1.242 1.714 2.714 4.045 4.428 6.995 1.712 2.952 3.573 7.282 5.571 12.994 1.992 5.708 3.854 12.279 5.564 19.698 2.095 8.761 3.189 18.935 3.285 30.553.097 11.608.856 19.555 2.286 23.839 1.431 4.288 5.093 6.047 10.992 5.284 7.423-.38 12.187-4.377 14.271-11.991 6.283-22.08 1.15-48.54-15.413-79.37-6.283-11.992-11.704-19.892-16.276-23.697 6.66 3.806 13.515 10.941 20.561 21.413 7.043 10.47 11.512 20.275 13.415 29.405.185.955.712 3.478 1.567 7.566.855 4.093 1.334 6.475 1.424 7.139.092.667.479 2.618 1.14 5.853.67 3.236.999 5.331.999 6.282 0 .955.092 2.81.287 5.568.195 2.758.144 4.9-.144 6.423-.287 1.526-.568 3.573-.855 6.137a46.735 46.735 0 01-1.427 7.426c-.657 2.378-1.373 5-2.136 7.851 10.465 4.568 15.701 8.562 15.701 11.991-3.994-3.237-9.709-5.376-17.135-6.413-7.427-1.051-14.318-.052-20.697 2.994s-9.664 8.087-9.856 15.126c-6.851 0-11.707 1.711-14.558 5.144-4.186 4.945-6.372 11.652-6.563 20.126-.191 8.466.517 17.702 2.135 27.688 1.626 9.992 2.242 16.983 1.858 20.983zM210.062 100.506c-.572-.188-1.047-.763-1.425-1.713 0-1.709.854-2.38 2.568-1.997 1.143.378 2.24 1.807 3.284 4.281 1.047 2.474 1.285 5.33.715 8.566 0 .571-.284.859-.859.854-2.096 0-2.856-1.902-2.284-5.708.569-2.855-.097-4.283-1.999-4.283zm73.946 4.571l-.568.855c-1.52.95-2.275 1.141-2.275.572-.767-5.142-2.479-8.092-5.141-8.854l-1.143-.57c-1.335-1.143-.671-1.809 1.991-1.999.571-.191 1.427.093 2.57.855 1.143.763 2.19 1.953 3.142 3.571.948 1.62 1.424 3.473 1.424 5.57z"/><path fill="white" d="M217.484 121.631c0 1.143.479 1.619 1.431 1.43.76 0 1.565-.905 2.424-2.713.857-1.804 2.334-2.803 4.425-2.996v-.003h-2.856c-3.615.571-5.424 1.998-5.424 4.282zM242.326 118.208c1.903-.572 3.571-.14 4.998 1.287 1.425 1.425 2.522 2.046 3.284 1.853 1.138-.568 1.425-1.427.854-2.568-1.522-2.475-4.566-2.665-9.136-.572z"/></svg>