<svg xmlns="http://www.w3.org/2000/svg" width="475.071" height="475.071"><path fill="#fff" d="M65.947 153.884c-8.183 0-15.136 2.853-20.844 8.566-5.708 5.711-8.564 12.562-8.564 20.555v122.772c0 8.179 2.855 15.126 8.564 20.837 5.708 5.712 12.657 8.562 20.841 8.562 8.186 0 15.085-2.851 20.699-8.562 5.618-5.711 8.425-12.658 8.425-20.837V183.005c0-7.996-2.857-14.847-8.565-20.555-5.709-5.71-12.564-8.566-20.556-8.566z"/><path fill="white" d="M106.494 349.457c0 8.754 3.046 16.177 9.136 22.269 6.091 6.085 13.512 9.13 22.27 9.13h21.128l.288 64.81c0 8.186 2.855 15.129 8.564 20.841 5.708 5.711 12.562 8.565 20.555 8.565 8.188 0 15.133-2.854 20.844-8.565 5.711-5.712 8.564-12.655 8.564-20.841v-64.81h39.397v64.81c0 8.186 2.854 15.129 8.562 20.841 5.715 5.711 12.662 8.565 20.848 8.565 8.179 0 15.126-2.854 20.834-8.565 5.708-5.712 8.559-12.655 8.559-20.841v-64.81h21.416c8.56 0 15.89-3.039 21.98-9.13 6.092-6.092 9.138-13.515 9.138-22.269V159.308H106.494v190.149z"/><path fill="#fff" d="M302.345 43.682L322.61 6.279c1.335-2.474.855-4.377-1.424-5.708-2.478-1.143-4.38-.572-5.708 1.714l-20.56 37.685c-18.082-7.994-37.205-11.991-57.384-11.991-20.174 0-39.304 3.997-57.387 11.991L159.591 2.286C158.263 0 156.357-.571 153.883.572c-2.285 1.331-2.758 3.234-1.426 5.708l20.271 37.402c-20.559 10.467-36.923 25.076-49.108 43.824-12.181 18.749-18.273 39.259-18.273 61.525h264.095c0-22.266-6.091-42.777-18.273-61.525-12.187-18.748-28.452-33.358-48.824-43.824zM185.144 98.068c-2.187 2.19-4.803 3.284-7.849 3.284-3.046 0-5.614-1.093-7.71-3.284-2.091-2.187-3.14-4.805-3.14-7.85 0-3.046 1.049-5.664 3.14-7.854 2.093-2.19 4.665-3.282 7.71-3.282 3.042 0 5.659 1.091 7.849 3.282 2.19 2.19 3.284 4.808 3.284 7.854 0 3.046-1.094 5.66-3.284 7.85zm120.345 0c-2.098 2.19-4.668 3.284-7.713 3.284-3.046 0-5.657-1.093-7.848-3.284-2.19-2.187-3.281-4.805-3.281-7.85 0-3.046 1.091-5.664 3.281-7.854 2.19-2.19 4.802-3.282 7.848-3.282 3.045 0 5.615 1.091 7.713 3.282 2.088 2.19 3.139 4.808 3.139 7.854 0 3.046-1.048 5.66-3.139 7.85zM429.964 162.306c-5.708-5.614-12.655-8.422-20.841-8.422-7.991 0-14.843 2.808-20.551 8.422-5.711 5.616-8.568 12.517-8.568 20.699v122.772c0 8.179 2.857 15.126 8.568 20.837 5.708 5.712 12.56 8.562 20.551 8.562 8.186 0 15.133-2.851 20.841-8.562 5.715-5.711 8.568-12.658 8.568-20.837V183.005c0-8.183-2.853-15.084-8.568-20.699z"/></svg>