<?xml version="1.0" encoding="iso-8859-1"?>
<!-- Generator: Adobe Illustrator 19.0.0, SVG Export Plug-In . SVG Version: 6.00 Build 0)  -->
<svg version="1.1" id="Capa_1" xmlns="http://www.w3.org/2000/svg" xmlns:xlink="http://www.w3.org/1999/xlink" x="0px" y="0px"
	 viewBox="0 0 512 512" style="enable-background:new 0 0 512 512;" xml:space="preserve">
<g>
	<g>
		<g>
			<path d="M213.333,32c0-5.896-4.771-10.667-10.667-10.667h-21.333c-2.896,0-5.646,1.167-7.667,3.25c-2,2.063-3.083,4.854-3,7.75
				c0.063,2.083,5.563,209.604-77.021,294.813c-22.833,23.563-50.75,35.521-82.979,35.521C4.771,362.667,0,367.438,0,373.333v85.333
				c0,5.667,4.417,10.333,10.083,10.646c0.271,0.021,1.208,0.063,2.75,0.063c12.479,0,63.917-2.938,112-48.438
				c58.729-55.542,88.5-150.521,88.5-282.271V32z"/>
			<path d="M501.333,362.667c-32.208,0-60.125-11.938-82.979-35.5c-82.521-85.125-77.083-292.75-77.021-294.833
				c0.083-2.896-1-5.688-3-7.75c-2.021-2.083-4.771-3.25-7.667-3.25h-21.333c-5.896,0-10.667,4.771-10.667,10.667v106.667
				c0,131.75,29.771,226.729,88.5,282.271c48.083,45.5,99.521,48.438,112,48.438c1.542,0,2.479-0.042,2.75-0.063
				C507.583,469,512,464.333,512,458.667v-85.333C512,367.438,507.229,362.667,501.333,362.667z"/>
			<path d="M277.333,32.313c0.083-2.875-1-5.667-3.021-7.75c-2-2.063-4.771-3.229-7.646-3.229h-21.333
				c-2.875,0-5.646,1.167-7.646,3.229c-2.021,2.083-3.104,4.875-3.021,7.75c0.104,3.583,9.708,359.438-61.354,440.667
				c-2.771,3.146-3.417,7.625-1.688,11.438s5.521,6.25,9.708,6.25h149.333c4.188,0,7.979-2.438,9.708-6.25s1.083-8.292-1.688-11.438
				C267.625,391.75,277.229,35.896,277.333,32.313z"/>
		</g>
	</g>
</g>
<g>
</g>
<g>
</g>
<g>
</g>
<g>
</g>
<g>
</g>
<g>
</g>
<g>
</g>
<g>
</g>
<g>
</g>
<g>
</g>
<g>
</g>
<g>
</g>
<g>
</g>
<g>
</g>
<g>
</g>
</svg>
